#!OML:ASF H:\Dans Jumps\Project 1\Capture day 1\Session 1\subject.ASF
:FULLY-SPECIFIED
:DEGREES
222
root 0.0811775 10.9412 -17.2243 19.6273 1.0048 -0.805712
lowerback 53.9578 0.0295129 0.74894
upperback 8.48755 0.73916 1.73736
thorax -11.6094 0.244356 1.2434
lowerneck -21.9932 0.298404 -2.41225
upperneck -2.29441 1.12856 -2.29211
head 3.09317 0.462835 -0.230868
rclavicle 7.15625e-015 -1.08338e-014
rhumerus -87.7302 -9.59602 -31.9873
rradius 16.3859
rwrist 48.6964
rhand -14.5601 -19.2569
rfingers 7.12502
rthumb 11.589 -48.9164
lclavicle 7.15625e-015 -1.08338e-014
lhumerus -78.5152 6.75914 52.7268
lradius 7.94977
lwrist -1.22446
lhand -21.7698 -5.46848
lfingers 7.12502
lthumb 4.63105 24.4609
rfemur -97.3531 -5.36354 24.2953
rtibia 112.232
rfoot -33.2462 -11.9856
rtoes 0.463172
lfemur -97.4729 7.55895 -24.7816
ltibia 111.15
lfoot -30.4757 13.5875
ltoes -3.84034
223
root 0.0733749 10.9234 -17.2078 19.6521 1.0608 -0.842249
lowerback 54.2853 0.0204141 0.79099
upperback 8.3828 0.762337 1.76099
thorax -11.7634 0.251764 1.24218
lowerneck -21.9382 0.317125 -2.36267
upperneck -2.44267 1.13757 -2.34228
head 3.03017 0.467948 -0.256059
rclavicle -6.16232e-015 -2.28602e-014
rhumerus -87.4564 -9.67512 -31.9625
rradius 16.2473
rwrist 49.1987
rhand -14.312 -19.1493
rfingers 7.12502
rthumb 11.8282 -48.7953
lclavicle -6.16232e-015 -2.28602e-014
lhumerus -78.1071 6.93395 52.6502
lradius 8.02317
lwrist -1.18489
lhand -21.2867 -5.39007
lfingers 7.12502
lthumb 5.09752 24.5286
rfemur -97.406 -5.3951 24.4197
rtibia 112.432
rfoot -33.4208 -12.0815
rtoes 0.557642
lfemur -97.5773 7.67508 -24.7866
ltibia 111.361
lfoot -30.6611 13.5895
ltoes -3.91199
224
root 0.0655868 10.9106 -17.188 19.677 1.11731 -0.89294
lowerback 54.5826 0.0190091 0.836574
upperback 8.27909 0.798041 1.79581
thorax -11.913 0.263983 1.24592
lowerneck -21.9376 0.33563 -2.31045
upperneck -2.5277 1.14948 -2.3973
head 3.00016 0.472689 -0.282894
rclavicle 4.17448e-015 -4.96962e-016
rhumerus -87.0906 -9.83728 -31.86
rradius 16.112
rwrist 49.8018
rhand -14.0124 -19.0368
rfingers 7.12502
rthumb 12.1171 -48.6659
lclavicle 4.17448e-015 -4.96962e-016
lhumerus -77.5761 7.15921 52.6008
lradius 8.08445
lwrist -1.1449
lhand -20.8802 -5.29945
lfingers 7.12502
lthumb 5.49006 24.6094
rfemur -97.4057 -5.40387 24.5446
rtibia 112.595
rfoot -33.6012 -12.1958
rtoes 0.651396
lfemur -97.6323 7.79253 -24.7676
ltibia 111.541
lfoot -30.8584 13.6069
ltoes -3.99563
225
root 0.0581147 10.9027 -17.165 19.7018 1.17288 -0.95218
lowerback 54.8445 0.0238078 0.879625
upperback 8.16721 0.841135 1.83985
thorax -12.0686 0.279039 1.25754
lowerneck -21.9588 0.359046 -2.2376
upperneck -2.55042 1.16631 -2.47706
head 2.99705 0.477211 -0.32122
rclavicle -1.37161e-014 -1.64991e-014
rhumerus -86.641 -10.0627 -31.6882
rradius 15.9908
rwrist 50.4879
rhand -13.6765 -18.9392
rfingers 7.12502
rthumb 12.441 -48.549
lclavicle -1.37161e-014 -1.64991e-014
lhumerus -76.952 7.42327 52.573
lradius 8.12664
lwrist -1.22204
lhand -20.577 -5.19087
lfingers 7.12502
lthumb 5.78274 24.7102
rfemur -97.3565 -5.39507 24.6642
rtibia 112.723
rfoot -33.7835 -12.3241
rtoes 0.739421
lfemur -97.6367 7.90452 -24.7294
ltibia 111.691
lfoot -31.0629 13.6483
ltoes -4.09727
226
root 0.0511276 10.8999 -17.1389 19.7264 1.23184 -1.02283
lowerback 55.0697 0.0308078 0.924487
upperback 8.04283 0.88973 1.89413
thorax -12.2356 0.29604 1.27706
lowerneck -21.966 0.388075 -2.14777
upperneck -2.52769 1.18832 -2.58324
head 3.00826 0.482155 -0.371026
rclavicle -7.95139e-016 -2.88238e-015
rhumerus -86.1116 -10.3355 -31.4915
rradius 15.899
rwrist 51.2124
rhand -13.3152 -18.8679
rfingers 7.12502
rthumb 12.7893 -48.4561
lclavicle -7.95139e-016 -2.88238e-015
lhumerus -76.2504 7.72291 52.5578
lradius 8.14213
lwrist -1.50735
lhand -20.372 -5.08029
lfingers 7.12502
lthumb 5.98067 24.8153
rfemur -97.2585 -5.37225 24.7831
rtibia 112.813
rfoot -33.9579 -12.4739
rtoes 0.794183
lfemur -97.5903 8.00041 -24.6611
ltibia 111.808
lfoot -31.2718 13.7072
ltoes -4.18497
227
root 0.044842 10.9024 -17.1094 19.7509 1.29385 -1.09813
lowerback 55.2494 0.0370406 0.970487
upperback 7.91638 0.93897 1.95408
thorax -12.4009 0.313177 1.30187
lowerneck -21.9831 0.41481 -2.06179
upperneck -2.46454 1.20938 -2.68209
head 3.03589 0.486112 -0.417799
rclavicle 1.98785e-015 9.14409e-015
rhumerus -85.4963 -10.6586 -31.3484
rradius 15.8596
rwrist 51.8862
rhand -12.9396 -18.8644
rfingers 7.12502
rthumb 13.1514 -48.4296
lclavicle 1.98785e-015 9.14409e-015
lhumerus -75.5325 7.9854 52.5596
lradius 8.2293
lwrist -2.00643
lhand -20.2177 -4.9967
lfingers 7.12502
lthumb 6.12964 24.8946
rfemur -97.1075 -5.3447 24.8946
rtibia 112.865
rfoot -34.1317 -12.6297
rtoes 0.830909
lfemur -97.4892 8.07326 -24.5681
ltibia 111.888
lfoot -31.4721 13.7885
ltoes -4.26541
228
root 0.039033 10.9101 -17.0765 19.775 1.3595 -1.17013
lowerback 55.3792 0.0425989 1.01088
upperback 7.79021 0.984645 2.01681
thorax -12.5618 0.329022 1.33368
lowerneck -22.0152 0.439271 -1.99205
upperneck -2.36158 1.23214 -2.75809
head 3.08046 0.491232 -0.453858
rclavicle 3.18055e-015 1.09332e-015
rhumerus -84.7847 -11.0103 -31.3758
rradius 15.8678
rwrist 52.3183
rhand -12.6674 -18.8939
rfingers 7.12502
rthumb 13.4138 -48.442
lclavicle 3.18055e-015 1.09332e-015
lhumerus -74.7255 8.30935 52.5782
lradius 8.26277
lwrist -2.70773
lhand -20.2168 -4.97173
lfingers 7.12502
lthumb 6.13048 24.9196
rfemur -96.9052 -5.31908 24.9936
rtibia 112.88
rfoot -34.3027 -12.792
rtoes 0.834309
lfemur -97.3322 8.11824 -24.4557
ltibia 111.93
lfoot -31.657 13.8878
ltoes -4.32325
229
root 0.0332717 10.9236 -17.0403 19.799 1.42812 -1.23331
lowerback 55.4615 0.0516471 1.04062
upperback 7.66698 1.02862 2.08224
thorax -12.7156 0.344555 1.37379
lowerneck -22.05 0.45429 -1.95376
upperneck -2.24041 1.24888 -2.79196
head 3.1315 0.495171 -0.470664
rclavicle 1.78906e-015 -3.97569e-016
rhumerus -83.9723 -11.3769 -31.6378
rradius 15.9271
rwrist 52.4452
rhand -12.5175 -18.9558
rfingers 7.12502
rthumb 13.5583 -48.4943
lclavicle 1.78906e-015 -3.97569e-016
lhumerus -73.8194 8.69748 52.6163
lradius 8.24177
lwrist -3.5048
lhand -20.3484 -5.01404
lfingers 7.12502
lthumb 6.00342 24.8809
rfemur -96.6491 -5.29636 25.0762
rtibia 112.853
rfoot -34.4678 -12.9671
rtoes 0.767984
lfemur -97.1148 8.13368 -24.3256
ltibia 111.925
lfoot -31.8236 13.9985
ltoes -4.35748
